<svg xmlns="http://www.w3.org/2000/svg" width="151" height="29" viewBox="0 0 150 29">
  <defs>
    <linearGradient id="fill" x1="0" y1="0" x2="0" y2="1">
      <stop offset="0%" stop-color="#42332c"/>
      <stop offset="25%" stop-color="#42332c"/>
      <stop offset="50%" stop-color="#232019"/>
      <stop offset="100%" stop-color="#000000"/>
    </linearGradient>
    <linearGradient id="stroke" x1="0" y1="0" x2="0" y2="1">
      <stop offset="0%" stop-color="#fff9cf"/>
      <stop offset="25%" stop-color="#fff9cf"/>
      <stop offset="50%" stop-color="#b9865b"/>
      <stop offset="100%" stop-color="#69410d"/>
    </linearGradient>
  </defs>
  <path stroke="url(#stroke)" stroke-width="1" fill="url(#fill)" d="M8.904 6.132h4.284q6.72 0 11.172 3.36 1.344 1.302 1.344 2.772 0 1.596-1.848 3.864 4.62 1.89 4.62 5.208 0 3.99-6.048 6.216-2.247.84-6.72.84-4.977 0-15.708-.84v-.084q.756-4.326.756-9.24v-2.016q0-4.347-.504-9.576 3.885-.504 8.652-.504zM8.148 11.676l-.252 11.424h7.476q3.192 0 3.78-2.1v-.084q0-.693-.672-1.68-1.197.336-2.352.336h-1.512q-.483 0-1.764-1.848l-1.596-1.764v-.168l.588.084h.252q3.885 0 5.292-1.764l.168-.504q0-1.701-5.544-2.184zM31.185 6.174l6.3.252.084.084q-.252 2.583-.252 4.452v.588q0 8.274 10.584 10.248.336-1.596.336-4.536l-.336-10.92-.084-.084.084-.084h6.888l.168.168v21.252l-.168.168h-6.468l-.168-.168v-2.604l-3.36 2.772q-1.176 0-5.208-1.68-2.142-1.008-4.62-3.36-4.284-4.704-4.284-10.752v-2.016q.147-3.78.504-3.78zM80.304 6.174h2.016q5.271 0 9.912 1.848l-1.344 3.024q-6.09-1.092-10.416-1.092-9.156 0-12.012 4.368l-.252.924v.42q0 2.772 5.964 6.636 2.667 1.596 5.124 1.596 5.943 0 8.652-2.94.588-.777.588-1.932 0-1.722-2.1-2.436-1.344-.42-2.856-.42-2.772 0-8.232 1.344l-1.344-2.436q1.239-.756 6.72-2.016 1.806-.336 2.94-.336h.084q5.208 0 12.096 2.856 2.52 1.386 2.52 2.604v.42q0 4.599-11.508 8.232-5.292 1.344-7.644 1.344-6.405-.483-15.288-5.46-5.88-3.885-5.88-6.468v-.756q0-2.184 5.124-5.124 8.61-4.2 17.136-4.2zM109.326.168l.084.084q-.336 8.442-.336 16.296v5.964l9.156.252.084.084v.084q-2.331 4.956-2.604 4.956l-3.948-.168-10.248.252h-.672l-.168-.168q1.008-4.683 1.008-12.768 0-5.46-.504-11.508zM126.189 6.006h21.084l.168.168q-2.583 5.985-2.856 6.3h-14.532l-1.008 1.848v.084h9.912l.168.168v4.2l-.168.168h-9.576v.084q2.352 3.192 12.096 3.192 4.326 0 8.988-.588l.084.084q-1.827 3.927-3.36 6.468-6.657 0-16.044-1.68-10.332-2.541-10.332-8.148v-.924q0-4.242 5.376-11.424z"/>
</svg>
